<?xml version="1.0" encoding="UTF-8"?>
<svg id="Calque_1" data-name="Calque 1" xmlns="http://www.w3.org/2000/svg" viewBox="0 0 260 260">
  <defs>
    <style>
      .cls-1 {
        fill: none;
        stroke: #fff;
        stroke-miterlimit: 10;
        stroke-width: 8.81px;
      }
    </style>
  </defs>
  <g id="_Répétition_radiale_" data-name="&amp;lt;Répétition radiale&amp;gt;">
    <polygon class="cls-1" points="44.73 104.96 66.88 104.96 103.71 129.69 66.88 154.42 44.73 154.42 7.9 129.69 44.73 104.96"/>
  </g>
  <g id="_Répétition_radiale_-2" data-name="&amp;lt;Répétition radiale&amp;gt;">
    <polygon class="cls-1" points="68.67 65.68 87.86 76.76 107.39 116.59 63.13 119.59 43.94 108.51 24.41 68.68 68.67 65.68"/>
  </g>
  <g id="_Répétition_radiale_-3" data-name="&amp;lt;Répétition radiale&amp;gt;">
    <polygon class="cls-1" points="109.05 43.63 120.12 62.82 117.12 107.08 77.3 87.55 66.22 68.36 69.22 24.1 109.05 43.63"/>
  </g>
  <g id="_Répétition_radiale_-4" data-name="&amp;lt;Répétition radiale&amp;gt;">
    <polygon class="cls-1" points="155.04 44.73 155.04 66.88 130.31 103.71 105.58 66.88 105.58 44.73 130.31 7.9 155.04 44.73"/>
  </g>
  <g id="_Répétition_radiale_-5" data-name="&amp;lt;Répétition radiale&amp;gt;">
    <polygon class="cls-1" points="194.32 68.67 183.24 87.86 143.41 107.39 140.41 63.13 151.49 43.94 191.32 24.41 194.32 68.67"/>
  </g>
  <g id="_Répétition_radiale_-6" data-name="&amp;lt;Répétition radiale&amp;gt;">
    <polygon class="cls-1" points="216.37 109.05 197.18 120.12 152.92 117.12 172.45 77.3 191.64 66.22 235.9 69.22 216.37 109.05"/>
  </g>
  <g id="_Répétition_radiale_-7" data-name="&amp;lt;Répétition radiale&amp;gt;">
    <polygon class="cls-1" points="215.27 155.04 193.12 155.04 156.29 130.31 193.12 105.58 215.27 105.58 252.1 130.31 215.27 155.04"/>
  </g>
  <g id="_Répétition_radiale_-8" data-name="&amp;lt;Répétition radiale&amp;gt;">
    <polygon class="cls-1" points="191.33 194.32 172.14 183.24 152.61 143.41 196.87 140.41 216.06 151.49 235.59 191.32 191.33 194.32"/>
  </g>
  <g id="_Répétition_radiale_-9" data-name="&amp;lt;Répétition radiale&amp;gt;">
    <polygon class="cls-1" points="150.95 216.37 139.88 197.18 142.88 152.92 182.7 172.45 193.78 191.64 190.78 235.9 150.95 216.37"/>
  </g>
  <g id="_Répétition_radiale_-10" data-name="&amp;lt;Répétition radiale&amp;gt;">
    <polygon class="cls-1" points="104.96 215.27 104.96 193.12 129.69 156.29 154.42 193.12 154.42 215.27 129.69 252.1 104.96 215.27"/>
  </g>
  <g id="_Répétition_radiale_-11" data-name="&amp;lt;Répétition radiale&amp;gt;">
    <polygon class="cls-1" points="65.68 191.33 76.76 172.14 116.59 152.61 119.59 196.87 108.51 216.06 68.68 235.59 65.68 191.33"/>
  </g>
  <g id="_Répétition_radiale_-12" data-name="&amp;lt;Répétition radiale&amp;gt;">
    <polygon class="cls-1" points="43.63 150.95 62.82 139.88 107.08 142.88 87.55 182.7 68.36 193.78 24.1 190.78 43.63 150.95"/>
  </g>
</svg>