<?xml version="1.0" standalone="no"?>
<!DOCTYPE svg PUBLIC "-//W3C//DTD SVG 20010904//EN"
 "http://www.w3.org/TR/2001/REC-SVG-20010904/DTD/svg10.dtd">
<svg version="1.0" xmlns="http://www.w3.org/2000/svg"
 width="700.000000pt" height="700.000000pt" viewBox="0 0 700.000000 700.000000"
 preserveAspectRatio="xMidYMid meet">
<metadata>
Created by potrace 1.14, written by Peter Selinger 2001-2017
</metadata>
<g transform="translate(0.000000,700.000000) scale(0.100000,-0.100000)"
fill="#000000" stroke="none">
<path d="M3325 6728 c-97 -145 -244 -365 -328 -490 -84 -125 -155 -228 -159
-228 -8 0 -219 102 -752 364 -175 86 -321 155 -324 152 -6 -7 -8 -29 -17 -167
-4 -63 -8 -132 -10 -154 -2 -22 -6 -89 -10 -150 -3 -60 -8 -126 -10 -145 -1
-19 -6 -84 -10 -145 -3 -60 -8 -126 -10 -145 -2 -19 -7 -87 -10 -150 -4 -63
-10 -119 -15 -124 -9 -9 -19 -10 -185 -20 -60 -4 -132 -9 -160 -11 -63 -5
-172 -13 -300 -20 -55 -3 -118 -8 -140 -10 -22 -2 -89 -7 -150 -11 -60 -4
-121 -8 -135 -9 -14 -2 -47 -3 -73 -4 -44 -1 -48 -3 -42 -22 4 -11 88 -185
187 -387 333 -679 327 -666 315 -678 -7 -7 -172 -119 -367 -250 -557 -373
-605 -405 -608 -414 -2 -5 86 -68 196 -142 109 -73 330 -221 490 -328 160
-107 292 -198 292 -202 0 -7 -98 -211 -364 -752 -86 -175 -155 -321 -153 -323
8 -7 49 -12 162 -18 109 -6 130 -8 315 -20 52 -4 120 -8 150 -10 53 -4 174
-12 290 -20 30 -2 102 -7 160 -10 58 -4 106 -8 107 -9 5 -4 15 -135 28 -361 3
-44 7 -105 10 -135 2 -30 7 -102 10 -160 4 -58 8 -120 10 -139 2 -19 7 -91 11
-160 4 -69 8 -133 10 -141 1 -8 3 -34 3 -57 1 -24 5 -43 10 -43 5 0 175 81
378 181 700 344 687 338 699 326 11 -12 208 -303 513 -760 l153 -228 116 174
c64 96 214 319 332 495 118 177 219 322 223 322 9 0 89 -39 721 -349 192 -94
351 -170 353 -168 7 8 11 42 18 167 4 69 8 141 10 160 2 19 6 82 10 140 3 58
8 123 10 145 1 22 6 92 10 155 3 63 8 126 10 140 2 14 7 81 10 150 4 69 8 126
8 127 3 3 132 13 362 28 44 3 109 8 145 11 36 2 108 7 160 10 52 3 113 7 135
9 23 2 95 7 160 11 66 3 127 8 135 10 8 1 34 3 58 3 23 1 42 5 42 10 0 7 -215
449 -455 936 -50 101 -62 132 -52 141 6 6 232 159 500 339 l488 327 -189 126
c-104 70 -327 219 -495 332 -169 113 -307 208 -307 213 0 7 57 125 364 751 86
175 155 321 153 323 -8 7 -50 12 -167 18 -63 3 -128 8 -145 10 -16 2 -82 7
-145 10 -63 4 -133 8 -155 10 -22 3 -83 7 -135 10 -52 4 -122 8 -155 10 -33 2
-107 7 -165 10 -58 4 -108 10 -113 14 -4 4 -10 36 -12 72 -3 35 -7 91 -10 124
-2 33 -7 105 -10 160 -3 55 -8 123 -10 150 -2 28 -7 93 -10 145 -3 52 -8 118
-10 145 -3 28 -8 97 -11 155 -4 58 -8 116 -9 130 -2 14 -3 44 -4 68 -1 23 -5
42 -10 42 -5 0 -197 -93 -427 -206 -645 -318 -637 -314 -650 -301 -9 10 -536
791 -633 940 -13 20 -28 37 -32 37 -5 0 -88 -118 -184 -262z m310 -341 c63
-95 142 -212 175 -261 33 -49 60 -91 60 -93 0 -2 18 -28 40 -58 73 -98 74 -84
-25 -256 -48 -83 -94 -164 -102 -178 -8 -14 -23 -39 -33 -56 -10 -16 -25 -41
-33 -55 -7 -14 -24 -43 -36 -64 -19 -34 -22 -49 -17 -110 3 -39 8 -115 11
-169 3 -54 8 -114 10 -135 2 -20 6 -84 10 -141 l6 -103 -96 -144 -97 -143 -97
145 c-91 133 -98 148 -95 187 1 23 5 89 9 147 4 58 8 121 10 140 5 52 18 273
17 291 0 9 -14 38 -30 65 -17 27 -86 147 -155 266 l-125 217 200 298 c110 164
214 319 230 345 17 26 34 45 39 42 5 -2 60 -82 124 -177z m-1040 -528 l130
-64 0 -316 0 -316 173 -259 172 -259 -6 -100 c-4 -55 -8 -109 -9 -120 -1 -11
-3 -41 -4 -67 -1 -31 -5 -48 -13 -47 -7 0 -78 33 -158 72 l-145 72 -139 282
-139 281 -272 157 c-271 156 -272 157 -270 189 2 17 6 74 9 126 6 91 12 175
21 305 3 33 7 105 11 160 3 55 7 111 9 125 1 14 3 39 3 57 l2 31 248 -122
c136 -67 306 -151 377 -187z m2456 234 c1 -32 2 -71 4 -88 1 -16 6 -77 10
-135 3 -58 8 -125 10 -150 13 -190 18 -284 19 -339 l1 -64 -235 -136 c-130
-75 -253 -146 -273 -158 -34 -21 -49 -47 -152 -259 -63 -130 -115 -238 -115
-240 0 -3 -11 -22 -25 -44 -22 -35 -45 -50 -175 -113 -114 -55 -150 -69 -151
-58 -1 9 -3 25 -4 36 -5 33 -19 258 -18 282 0 11 78 137 173 278 l172 258 0
312 -1 313 231 113 c126 63 289 144 361 180 73 36 140 67 150 67 14 2 17 -7
18 -55z m-2011 -689 c0 -2 16 -29 36 -60 l36 -57 -7 -121 c-4 -66 -8 -122 -9
-124 -2 -1 -33 42 -70 97 l-66 99 1 153 0 153 40 -68 c21 -37 39 -69 39 -72z
m1015 -22 l-1 -148 -64 -97 c-36 -53 -67 -96 -70 -97 -3 0 -6 24 -7 53 -1 28
-4 80 -7 115 -6 63 -6 64 50 160 74 127 95 162 98 162 1 0 1 -67 1 -148z
m-2216 -557 l156 -270 281 -139 281 -138 69 -145 c38 -80 69 -150 69 -156 0
-6 -11 -12 -25 -13 -121 -8 -279 -18 -296 -17 -11 0 -137 78 -279 173 l-257
172 -314 0 -313 0 -87 177 c-219 444 -275 564 -267 571 4 4 62 11 128 14 66 4
138 9 160 11 41 4 124 10 325 21 63 3 116 7 118 9 2 2 24 2 49 1 l46 -1 156
-270z m3666 250 c50 -3 115 -7 145 -10 30 -2 98 -7 150 -10 94 -6 163 -11 289
-20 35 -3 66 -7 69 -10 5 -5 -22 -60 -258 -538 l-105 -212 -317 0 -316 0 -258
-173 -258 -173 -96 7 c-52 4 -108 8 -125 10 -16 1 -49 3 -72 3 -28 1 -43 5
-42 14 0 6 33 77 72 157 l72 145 281 139 281 139 30 51 c16 28 87 151 157 272
l128 222 41 -4 c23 -2 83 -6 132 -9z m-3270 -204 c40 -22 43 -27 143 -234 2
-5 -13 0 -34 10 -22 11 -71 34 -109 53 l-71 34 -72 127 c-40 70 -72 129 -72
132 0 3 39 -18 88 -47 48 -29 105 -62 127 -75z m2728 52 c-16 -26 -32 -55 -36
-63 -6 -13 -42 -74 -72 -122 -9 -15 -215 -121 -222 -114 -2 1 21 50 49 107
l53 104 125 72 c68 40 126 70 128 68 3 -2 -9 -26 -25 -52z m-1563 -767 c57
-86 107 -156 110 -156 3 1 52 72 110 160 57 87 105 158 106 157 3 -2 12 -138
20 -277 3 -58 8 -107 10 -109 4 -4 33 9 208 96 71 35 131 62 133 59 2 -2 -34
-81 -81 -175 -46 -94 -79 -171 -73 -172 16 0 86 -5 222 -14 61 -4 118 -7 128
-7 9 0 17 -3 17 -7 0 -4 -70 -54 -155 -111 -124 -83 -153 -107 -143 -117 7 -6
80 -57 163 -112 l149 -101 -49 -1 c-28 -1 -59 -3 -70 -4 -11 -2 -74 -6 -140
-10 -66 -4 -124 -10 -128 -14 -4 -4 29 -81 73 -171 45 -89 79 -164 77 -167 -3
-2 -81 34 -176 81 -157 77 -171 83 -172 63 0 -12 -2 -35 -3 -52 -3 -26 -17
-267 -19 -304 0 -17 -17 5 -129 171 -64 97 -95 135 -103 128 -6 -5 -56 -77
-111 -159 -54 -82 -100 -149 -100 -148 -1 1 -5 52 -9 112 -4 61 -9 124 -11
140 -2 17 -4 54 -5 83 -1 64 11 66 -192 -35 -82 -41 -151 -72 -154 -70 -2 3
34 82 81 176 80 159 84 171 63 172 -12 0 -33 2 -47 4 -25 3 -257 17 -297 18
-12 1 -20 4 -18 7 2 4 74 53 159 110 85 57 153 107 150 112 -3 4 -67 49 -142
99 -178 119 -178 119 -122 120 25 1 56 2 70 4 14 1 79 6 145 10 66 4 122 9
124 11 2 2 -33 79 -78 170 -45 92 -80 168 -78 171 2 2 79 -33 171 -78 91 -45
168 -80 171 -77 2 2 6 29 9 59 6 72 19 269 20 296 0 12 3 20 6 18 3 -2 52 -73
110 -159z m-1537 -166 c52 -36 93 -67 90 -70 -2 -2 -21 -5 -41 -7 -20 -1 -70
-4 -110 -7 l-72 -6 -123 71 c-67 39 -125 74 -130 78 -4 4 60 7 142 6 l149 -1
95 -64z m3626 18 c-30 -17 -87 -51 -128 -75 l-74 -44 -81 5 c-45 2 -101 5
-125 5 l-44 1 29 23 c15 12 60 43 99 69 l70 46 154 0 154 0 -54 -30z m-4280
-82 c42 -24 92 -53 111 -63 19 -11 106 -62 193 -112 l159 -92 81 6 c45 3 116
7 157 10 41 3 104 7 140 10 36 2 104 7 153 11 l87 6 140 -94 c77 -51 140 -96
140 -100 0 -4 -64 -49 -142 -101 -129 -85 -147 -95 -183 -92 -22 2 -85 6 -140
10 -55 3 -120 8 -145 10 -25 2 -97 7 -160 11 -63 3 -117 8 -119 10 -5 5 -60
-25 -343 -189 l-217 -125 -345 231 c-190 128 -345 234 -345 237 1 8 682 460
693 460 5 0 43 -20 85 -44z m5038 -214 c177 -119 320 -219 317 -224 -3 -5
-103 -74 -222 -153 -119 -80 -271 -181 -336 -225 -66 -44 -124 -80 -129 -80
-5 0 -131 70 -280 156 l-270 155 -81 -6 c-162 -12 -193 -14 -281 -20 -49 -3
-127 -8 -173 -11 l-83 -6 -139 94 c-77 51 -140 96 -140 100 0 3 64 49 143 102
131 87 147 95 183 91 21 -2 86 -6 144 -10 58 -3 123 -8 145 -10 22 -2 89 -6
148 -10 60 -4 116 -8 125 -9 13 -2 187 90 252 134 8 6 24 14 35 20 11 5 76 42
145 83 120 71 126 73 150 59 14 -9 170 -112 347 -230z m-4290 -616 c2 -1 -41
-32 -95 -69 l-97 -66 -147 0 c-82 0 -148 1 -148 4 0 3 199 122 230 137 14 7
250 2 257 -6z m3431 -64 c57 -34 107 -62 112 -62 4 0 12 -6 18 -13 9 -10 -18
-12 -136 -12 l-147 1 -100 67 c-55 37 -98 67 -95 68 3 0 36 3 75 6 38 2 71 6
73 7 1 2 24 2 50 1 38 -1 67 -13 150 -63z m-2803 23 c17 -2 47 -4 68 -4 23 -1
37 -6 36 -13 0 -7 -33 -78 -72 -158 l-72 -145 -282 -140 -282 -139 -49 -86
c-27 -47 -97 -169 -156 -272 -102 -178 -109 -188 -134 -184 -15 3 -70 7 -122
11 -134 8 -235 15 -305 20 -33 2 -109 7 -170 11 -60 4 -121 8 -135 9 -14 2
-37 3 -51 4 -26 1 -24 5 93 244 65 133 149 303 186 377 l67 135 316 0 317 0
258 173 258 172 100 -6 c56 -3 115 -8 131 -9z m2324 -177 l254 -171 313 1 313
0 77 -156 c210 -428 284 -582 284 -590 0 -5 -24 -10 -52 -11 -29 -2 -71 -4
-93 -6 -22 -2 -87 -7 -145 -10 -58 -4 -125 -8 -150 -10 -88 -8 -286 -19 -339
-19 l-53 -1 -90 155 c-50 85 -120 207 -157 270 l-66 115 -280 140 -280 140
-72 145 c-40 80 -72 150 -72 155 -1 6 14 11 32 11 73 2 262 15 265 19 15 14
90 -28 311 -177z m-1878 -185 c5 -42 22 -268 22 -313 1 -17 -59 -115 -172
-284 l-173 -258 0 -314 0 -315 -197 -96 c-443 -216 -541 -263 -548 -263 -9 -1
-9 4 -17 130 -8 126 -16 238 -21 302 -8 93 -19 284 -19 341 l-1 59 120 70 c66
39 143 83 170 98 28 15 95 54 150 86 l100 59 139 280 138 281 147 71 c152 74
160 78 162 66z m1089 -76 l145 -72 140 -282 140 -282 185 -107 c102 -58 224
-128 271 -156 83 -47 87 -50 84 -81 -3 -38 -13 -172 -21 -294 -3 -49 -7 -110
-9 -138 -4 -45 -10 -142 -20 -303 -2 -29 -6 -56 -8 -59 -3 -3 -72 27 -154 67
-81 40 -248 122 -370 182 -123 59 -223 112 -224 116 -1 4 -2 149 -3 322 l-2
315 -163 240 c-89 132 -167 248 -172 258 -6 10 -7 52 -3 98 7 97 13 184 13
222 1 15 7 27 14 27 6 -1 77 -33 157 -73z m-527 -189 c87 -130 95 -147 92
-183 -2 -22 -6 -87 -10 -145 -4 -58 -8 -121 -10 -140 -12 -120 -16 -311 -7
-322 5 -7 19 -29 30 -48 11 -19 43 -75 71 -123 28 -49 51 -93 51 -98 0 -5 5
-9 10 -9 6 0 10 -4 10 -9 0 -6 29 -59 64 -120 l64 -109 -231 -346 c-127 -189
-234 -343 -238 -340 -4 2 -76 106 -160 231 -84 126 -186 277 -226 336 -40 60
-73 114 -73 120 0 10 91 172 242 430 l69 118 -6 82 c-3 45 -8 118 -11 162 -3
44 -7 105 -9 135 -2 30 -7 97 -10 148 l-6 93 93 140 c51 76 96 139 99 139 3 0
49 -64 102 -142z m-1246 -95 c-83 -175 -69 -160 -215 -245 l-133 -77 32 57
c18 31 40 68 49 82 9 14 25 42 35 63 11 21 27 46 35 54 13 14 193 109 212 112
4 0 -2 -20 -15 -46z m2408 -28 c86 -43 85 -42 189 -230 16 -27 33 -57 40 -65
7 -9 -1 -7 -24 6 -19 11 -81 46 -136 79 l-102 58 -48 101 c-26 56 -49 104 -51
109 -5 9 26 -5 132 -58z m-1669 -383 c1 -15 4 -63 8 -107 4 -56 1 -88 -8 -105
-32 -63 -135 -240 -139 -240 -2 0 -2 67 -2 148 l1 148 64 96 c36 53 67 94 69
92 3 -3 6 -17 7 -32z m888 -61 l66 -99 -1 -152 0 -153 -75 129 -76 129 6 90
c3 50 5 105 6 123 0 17 2 32 4 32 3 0 34 -45 70 -99z"/>
</g>
</svg>
